<svg width="20" height="20" viewBox="0 0 20 20" fill="none" xmlns="http://www.w3.org/2000/svg">
<path fill-rule="evenodd" clip-rule="evenodd" d="M19.893 7.44213L19.9727 7.70529C20.0383 7.90391 19.9831 8.12465 19.8331 8.26318L14.9865 12.6316L16.4225 19.1788C16.4711 19.3881 16.3965 19.6078 16.233 19.7367L16.0136 19.8946C15.9284 19.9652 15.8227 20.0023 15.7145 19.9999C15.6231 20.0019 15.5332 19.9763 15.4552 19.9262L10.0002 16.421L4.57514 19.9262C4.49714 19.9763 4.40717 20.0019 4.31585 19.9999C4.2076 20.0023 4.10189 19.9652 4.01668 19.8946L3.76736 19.7367C3.60386 19.6078 3.52926 19.3881 3.57788 19.1788L5.01393 12.6316L0.177238 8.2737C0.0195078 8.136 -0.0401977 7.90913 0.0276496 7.70529L0.137348 7.44213C0.195676 7.23416 0.371037 7.08693 0.57614 7.07372L6.94861 6.53688L9.39188 0.336955C9.47017 0.131058 9.66039 -0.0027956 9.87057 0.000116994H10.1298C10.3381 -0.00454821 10.5263 0.130692 10.5985 0.336955L13.0817 6.53688L19.4542 7.07372C19.6593 7.08693 19.8346 7.23416 19.893 7.44213ZM14.1089 16.9052L12.992 11.9789L16.6519 8.68423L11.8551 8.28423L10.0002 3.58955V14.2631L14.1089 16.9052Z" fill="#080C09"/>
</svg>
